<svg width="20" height="20" viewBox="0 0 20 20" fill="none" xmlns="http://www.w3.org/2000/svg">
<g clip-path="url(#clip0)">
<path d="M8.93231 5.72918H11.0677V3.59375H13.2031V1.45832H15.3386H17.4739V3.59375H19.6094V5.72918V7.86457V10H17.4739V12.1354H15.3386V14.2708H13.2031V16.4062H11.0677V18.5417H8.93231V16.4062H6.79688V14.2708H4.66145V12.1354H2.52605V10H0.390625V7.86457V5.72918V3.59375H2.52605V1.45832H4.66145H6.79688V3.59375H8.93231V5.72918Z" fill="#3FC657"/>
<path d="M11.0677 18.9323H8.93231C8.71656 18.9323 8.54168 18.7574 8.54168 18.5417V16.7969H6.79688C6.58113 16.7969 6.40625 16.622 6.40625 16.4062V14.6614H4.66148C4.44574 14.6614 4.27086 14.4866 4.27086 14.2708V12.526H2.52602C2.31027 12.526 2.13539 12.3511 2.13539 12.1354V10.3906H0.390625C0.174883 10.3906 0 10.2157 0 10V3.59375C0 3.37801 0.174883 3.20312 0.390625 3.20312H2.13543V1.45832C2.13543 1.24258 2.31031 1.0677 2.52605 1.0677H6.79688C7.01262 1.0677 7.1875 1.24258 7.1875 1.45832V3.20312H8.93231C9.14805 3.20312 9.32293 3.37801 9.32293 3.59375V5.33855H10.6771V3.59375C10.6771 3.37801 10.852 3.20312 11.0678 3.20312H12.8125V1.45832C12.8125 1.24258 12.9874 1.0677 13.2031 1.0677H17.474C17.6897 1.0677 17.8646 1.24258 17.8646 1.45832V3.20312H19.6094C19.8251 3.20312 20 3.37801 20 3.59375V5.03906C20 5.2548 19.8251 5.42969 19.6094 5.42969C19.3937 5.42969 19.2188 5.2548 19.2188 5.03906V3.98437H17.474C17.2582 3.98437 17.0834 3.80949 17.0834 3.59375V1.84895H13.5938V3.59375C13.5938 3.80949 13.4188 3.98437 13.2031 3.98437H11.4584V5.72918C11.4584 5.94492 11.2834 6.1198 11.0677 6.1198H8.93227C8.71652 6.1198 8.54164 5.94492 8.54164 5.72918V3.98437H6.79688C6.58113 3.98437 6.40625 3.80949 6.40625 3.59375V1.84895H2.91664V3.59375C2.91664 3.80949 2.74176 3.98437 2.52602 3.98437H0.78125V9.60937H2.52602C2.74176 9.60937 2.91664 9.78426 2.91664 10V11.7448H4.66145C4.87719 11.7448 5.05207 11.9197 5.05207 12.1354V13.8802H6.79688C7.01262 13.8802 7.1875 14.0551 7.1875 14.2709V16.0156H8.93231C9.14805 16.0156 9.32293 16.1905 9.32293 16.4062L9.32297 18.1511H10.6771V16.4062C10.6771 16.1905 10.852 16.0156 11.0677 16.0156H12.8125V14.2708C12.8125 14.0551 12.9874 13.8802 13.2031 13.8802H14.9479V12.1354C14.9479 11.9196 15.1229 11.7448 15.3386 11.7448H17.0834V10C17.0834 9.78426 17.2582 9.60937 17.474 9.60937H19.2188V8.55469C19.2188 8.33894 19.3937 8.16406 19.6094 8.16406C19.8251 8.16406 20 8.33894 20 8.55469V10C20 10.2157 19.8251 10.3906 19.6094 10.3906H17.8646V12.1354C17.8646 12.3512 17.6897 12.5261 17.474 12.5261H15.7292V14.2709C15.7292 14.4866 15.5543 14.6615 15.3386 14.6615H13.5938V16.4062C13.5938 16.622 13.4188 16.7969 13.2031 16.7969H11.4584L11.4583 18.5417C11.4583 18.7574 11.2834 18.9323 11.0677 18.9323Z" fill="black"/>
<path d="M19.6094 7.1875C19.5066 7.1875 19.4059 7.1457 19.3332 7.07305C19.2605 7.00039 19.2188 6.89961 19.2188 6.79688C19.2188 6.69414 19.2605 6.59336 19.3332 6.5207C19.4059 6.44805 19.5066 6.40625 19.6094 6.40625C19.7121 6.40625 19.8129 6.44805 19.8855 6.5207C19.9582 6.59336 20 6.69414 20 6.79688C20 6.89961 19.9582 7.00039 19.8855 7.07305C19.8129 7.1457 19.7121 7.1875 19.6094 7.1875Z" fill="black"/>
</g>
<defs>
<clipPath id="clip0">
<rect width="20" height="20" fill="white"/>
</clipPath>
</defs>
</svg>
